<svg xmlns="http://www.w3.org/2000/svg" viewBox="0 0 48 48" fill="none" stroke="currentColor" stroke-width="2" stroke-linecap="round" stroke-linejoin="round">
  <!-- 大脑轮廓 -->
  <path d="M24 8 C18 8 13 12 12 18 C10 18 7 20 7 24 C7 27 9 30 12 30 C12 36 17 40 24 40 C31 40 36 36 36 30 C39 30 41 27 41 24 C41 20 38 18 36 18 C35 12 30 8 24 8 Z"/>
  <!-- 大脑中间分割线 -->
  <line x1="24" y1="10" x2="24" y2="38"/>
  <!-- 左脑纹路 -->
  <path d="M16 18 Q13 22 16 26" stroke-width="1.5"/>
  <path d="M14 22 Q18 26 15 30" stroke-width="1.5"/>
  <!-- 右脑纹路 -->
  <path d="M32 18 Q35 22 32 26" stroke-width="1.5"/>
  <path d="M34 22 Q30 26 33 30" stroke-width="1.5"/>
</svg>
